<?xml version="1.0" encoding="utf-8"?>
<!-- Generator: Adobe Illustrator 19.0.0, SVG Export Plug-In . SVG Version: 6.00 Build 0)  -->
<svg version="1.1"
	 id="svg1" xmlns:inkscape="http://www.inkscape.org/namespaces/inkscape" xmlns:sodipodi="http://sodipodi.sourceforge.net/DTD/sodipodi-0.dtd" xmlns:svg="http://www.w3.org/2000/svg"
	 xmlns="http://www.w3.org/2000/svg" xmlns:xlink="http://www.w3.org/1999/xlink" x="0px" y="0px" width="604px" height="268px"
	 viewBox="52 268 604 268" style="enable-background:new 52 268 604 268;" xml:space="preserve">
<style type="text/css">
	.st0{fill:#000000;}
</style>
<g>
	
		<sodipodi:namedview  inkscape:cx="395.8591" inkscape:zoom="0.45344416" bordercolor="#000000" id="namedview1" borderopacity="0.25" inkscape:cy="561.25984" pagecolor="#00000" inkscape:current-layer="layer1" inkscape:window-width="1360" inkscape:window-height="705" inkscape:showpageshadow="2" inkscape:pageopacity="0.0" inkscape:pagecheckerboard="0" inkscape:deskcolor="#d1d1d1" inkscape:document-units="mm" inkscape:window-x="-8" inkscape:window-y="-8" inkscape:window-maximized="1">
		</sodipodi:namedview>
	<g id="g1">
		<path id="path1" class="st0" d="M359.8,404.4V292.6c0-2.6-2.1-4.7-4.7-4.7s-4.7,2.1-4.7,4.7v111.8c-5.8,2-10,7.4-10,13.9
			c0,8.1,6.5,14.6,14.6,14.6s14.6-6.5,14.6-14.6C369.8,411.8,365.6,406.4,359.8,404.4L359.8,404.4z"/>
	</g>
	<g id="g2">
		<path id="path2" class="st0" d="M408.9,369.2c1.2,0,2.4-0.5,3.3-1.4l13.6-13.6c1.8-1.8,1.8-4.8,0-6.6c-1.8-1.8-4.8-1.8-6.6,0
			l-13.6,13.6c-1.8,1.8-1.8,4.8,0,6.6C406.5,368.7,407.7,369.2,408.9,369.2z"/>
	</g>
	<path id="path3" class="st0" d="M368,397.8c2.9,1.8,5.3,4.2,7.2,7c2.6,3.9,4.1,8.5,4.1,13.5c0,1.3,0.5,2.5,1.4,3.3
		c0.8,0.8,2,1.4,3.3,1.4l0,0l0,0h48.2h200.2c1.3,0,2.5-0.5,3.3-1.4c0.8-0.8,1.4-2,1.4-3.3s-0.5-2.5-1.4-3.3c-0.8-0.8-2-1.4-3.3-1.4
		h-198h-37.5c-1.6-0.1-3.1-1.2-3.5-2.9c-0.3-1.7,0.6-3.4,2.2-4.1l49.4-20.5c1.2-0.5,2.1-1.4,2.5-2.5c0.5-1.1,0.5-2.4,0-3.6
		s-1.4-2.1-2.5-2.5c-1.1-0.5-2.4-0.5-3.6,0L391.9,398c-1.5,0.6-3.3,0-4.3-1.4c-1-1.5-0.8-3.4,0.4-4.6l11.7-11.7
		c0.9-0.9,1.4-2.1,1.4-3.3c0-1.2-0.5-2.4-1.4-3.3c-0.9-0.9-2.1-1.4-3.3-1.4c-1.2,0-2.4,0.5-3.3,1.4l-11.8,11.8
		c-1.2,1.1-3.1,1.3-4.5,0.4c-1.5-1-2-2.8-1.4-4.4l20.5-49.4c0.5-1.2,0.5-2.5,0-3.6c-0.5-1.1-1.3-2-2.5-2.5c-1.2-0.5-2.5-0.5-3.6,0
		c-1.1,0.5-2,1.3-2.5,2.5L365.1,382c-0.3,0.6-0.4,1.4-0.4,2.2v7.5C364.7,394.2,366,396.4,368,397.8"/>
	<g id="g2_1_">
		<path id="path2_1_" class="st0" d="M304.7,367.8c1.8-1.8,1.8-4.8,0-6.6l-13.6-13.6c-1.8-1.8-4.8-1.8-6.6,0c-1.8,1.8-1.8,4.8,0,6.6
			l13.6,13.6c0.9,0.9,2.1,1.4,3.3,1.4C302.6,369.2,303.8,368.7,304.7,367.8z"/>
	</g>
	<path id="path3_1_" class="st0" d="M342.4,397.8c2-1.3,3.2-3.6,3.2-6.1v-7.6c0-0.8-0.1-1.5-0.4-2.2L323,328.4
		c-0.5-1.2-1.4-2.1-2.5-2.5c-1.1-0.5-2.4-0.5-3.6,0c-1.2,0.5-2.1,1.4-2.5,2.5c-0.5,1.1-0.5,2.4,0,3.6l20.5,49.4
		c0.6,1.6,0.1,3.4-1.4,4.4c-1.4,1-3.3,0.8-4.5-0.4l-11.8-11.8c-0.9-0.9-2.1-1.4-3.3-1.4s-2.4,0.5-3.3,1.4c-0.9,0.9-1.4,2.1-1.4,3.3
		s0.5,2.4,1.4,3.3l11.7,11.6c1.2,1.2,1.4,3.1,0.4,4.6c-1,1.4-2.8,2-4.3,1.4l-49.5-20.5c-1.2-0.5-2.5-0.5-3.6,0
		c-1.1,0.5-2,1.3-2.5,2.5s-0.5,2.5,0,3.6c0.5,1.1,1.3,2,2.5,2.5l49.4,20.5c1.6,0.7,2.5,2.3,2.2,4.1c-0.3,1.7-1.8,2.9-3.5,2.9h-37.5
		h-197c-1.3,0-2.5,0.5-3.3,1.4c-0.8,0.8-1.4,2-1.4,3.3s0.5,2.5,1.4,3.3c0.8,0.8,2,1.4,3.3,1.4h199.2h48.2l0,0l0,0
		c1.3,0,2.5-0.5,3.3-1.4c0.8-0.8,1.4-2,1.4-3.3c0-5,1.5-9.6,4.1-13.5C337,402,339.5,399.6,342.4,397.8"/>
</g>
<g>
	<path class="st0" d="M80.3,447.2c-1.9,0-3.4-0.5-4.5-1.5s-1.6-2.3-1.6-4.1c0-1.8,0.5-3.2,1.6-4.1c1.1-0.9,2.6-1.4,4.5-1.4
		s3.4,0.5,4.5,1.4c1.1,0.9,1.6,2.3,1.6,4.1c0,1.7-0.5,3.1-1.6,4.1C83.8,446.7,82.3,447.2,80.3,447.2z M80.3,505.7
		c-1.6,0-2.8-0.5-3.6-1.4s-1.3-2.2-1.3-3.9v-37.8c0-1.7,0.4-3,1.3-3.9c0.8-0.9,2-1.4,3.6-1.4s2.8,0.5,3.6,1.4
		c0.9,0.9,1.3,2.2,1.3,3.9v37.8c0,1.7-0.4,3-1.3,3.9C83.2,505.3,82,505.7,80.3,505.7z"/>
	<path class="st0" d="M103.9,505.8c-1.6,0-2.8-0.4-3.6-1.3c-0.8-0.9-1.3-2.1-1.3-3.6v-38.8c0-1.6,0.4-2.8,1.3-3.7
		c0.8-0.8,2-1.3,3.5-1.3c1.6,0,2.7,0.4,3.5,1.3c0.8,0.8,1.2,2.1,1.2,3.7v7.6l-1.1-1.7c1.4-3.6,3.7-6.4,6.7-8.2s6.5-2.8,10.5-2.8
		c3.8,0,6.9,0.7,9.4,2.1c2.5,1.4,4.4,3.5,5.6,6.3s1.8,6.4,1.8,10.6v24.9c0,1.6-0.4,2.8-1.3,3.6c-0.8,0.9-2,1.3-3.6,1.3
		c-1.6,0-2.8-0.4-3.7-1.3c-0.8-0.9-1.3-2.1-1.3-3.6v-24.4c0-4.1-0.8-7.1-2.4-8.9c-1.6-1.9-4.1-2.8-7.4-2.8c-3.9,0-7.1,1.2-9.5,3.7
		s-3.5,5.8-3.5,9.9v22.5C108.9,504.2,107.2,505.8,103.9,505.8z"/>
	<path class="st0" d="M172.8,505.8c-1.4,0-2.5-0.4-3.5-1.1c-1-0.7-1.8-1.8-2.5-3.3l-16.2-37.7c-0.5-1.2-0.7-2.3-0.6-3.3
		c0.1-1,0.6-1.9,1.5-2.5c0.8-0.6,2-0.9,3.4-0.9c1.2,0,2.2,0.3,2.9,0.9c0.7,0.6,1.4,1.6,1.9,3l14.7,36.1h-2.7l14.9-36.1
		c0.6-1.4,1.2-2.4,2-3c0.7-0.6,1.8-0.9,3.2-0.9c1.2,0,2.1,0.3,2.8,0.9c0.7,0.6,1.1,1.4,1.3,2.4s0,2.1-0.5,3.3l-16.6,37.9
		c-0.6,1.5-1.4,2.6-2.4,3.3S174.2,505.8,172.8,505.8z"/>
	<path class="st0" d="M226.3,506c-5.2,0-9.6-1-13.3-3c-3.7-2-6.6-4.8-8.6-8.4c-2-3.7-3.1-8-3.1-13.1c0-4.9,1-9.2,3-12.9
		s4.8-6.6,8.2-8.6c3.5-2.1,7.5-3.1,11.9-3.1c3.3,0,6.2,0.5,8.8,1.6c2.6,1.1,4.8,2.6,6.6,4.7s3.2,4.5,4.2,7.4
		c0.9,2.9,1.4,6.2,1.4,9.8c0,1.1-0.3,1.9-1,2.5c-0.6,0.6-1.6,0.8-2.9,0.8h-32.6v-6h29.9l-1.7,1.4c0-3.2-0.5-6-1.4-8.2
		c-0.9-2.3-2.3-4-4.2-5.2c-1.8-1.2-4.1-1.8-6.8-1.8c-3,0-5.6,0.7-7.7,2.1c-2.1,1.4-3.7,3.4-4.8,5.9c-1.1,2.5-1.6,5.5-1.6,8.8v0.6
		c0,5.7,1.3,10,4,12.9c2.7,2.9,6.6,4.3,11.7,4.3c1.9,0,4-0.3,6.2-0.8c2.2-0.5,4.2-1.4,6.2-2.6c1.1-0.6,2.1-0.9,3-0.9
		c0.9,0.1,1.6,0.4,2.1,0.9s0.9,1.2,1,1.9c0.1,0.7,0,1.6-0.4,2.4c-0.4,0.8-1.1,1.5-2,2.2c-2.2,1.5-4.8,2.6-7.7,3.3
		C231.8,505.7,229,506,226.3,506z"/>
	<path class="st0" d="M261,505.8c-1.6,0-2.8-0.4-3.6-1.3c-0.8-0.9-1.3-2.1-1.3-3.6v-38.8c0-1.6,0.4-2.8,1.3-3.7
		c0.8-0.8,2-1.3,3.5-1.3c1.6,0,2.7,0.4,3.5,1.3c0.8,0.8,1.2,2.1,1.2,3.7v7.6l-1.1-1.7c1.4-3.6,3.7-6.4,6.7-8.2s6.5-2.8,10.5-2.8
		c3.8,0,6.9,0.7,9.4,2.1c2.5,1.4,4.3,3.5,5.6,6.3c1.2,2.8,1.8,6.4,1.8,10.6v24.9c0,1.6-0.4,2.8-1.3,3.6c-0.8,0.9-2,1.3-3.6,1.3
		s-2.8-0.4-3.7-1.3c-0.8-0.9-1.3-2.1-1.3-3.6v-24.4c0-4.1-0.8-7.1-2.4-8.9c-1.6-1.9-4.1-2.8-7.4-2.8c-3.9,0-7.1,1.2-9.5,3.7
		c-2.4,2.5-3.5,5.8-3.5,9.9v22.5C266,504.2,264.3,505.8,261,505.8z"/>
	<path class="st0" d="M332.2,506c-3.9,0-7.1-0.7-9.8-2c-2.7-1.4-4.6-3.4-5.9-6c-1.3-2.7-1.9-5.9-1.9-9.7v-22.9h-5.8
		c-1.3,0-2.3-0.3-3-1c-0.7-0.7-1.1-1.6-1.1-2.8s0.4-2.2,1.1-2.8c0.7-0.6,1.7-1,3-1h5.8v-10c0-1.6,0.4-2.8,1.3-3.7
		c0.9-0.8,2.1-1.3,3.6-1.3s2.7,0.4,3.6,1.3c0.8,0.8,1.3,2.1,1.3,3.7v10h11.4c1.3,0,2.3,0.3,3,1c0.7,0.6,1.1,1.6,1.1,2.8
		s-0.4,2.1-1.1,2.8c-0.7,0.7-1.7,1-3,1h-11.4v22.1c0,3.4,0.7,6,2.2,7.8c1.5,1.7,3.8,2.6,7.1,2.6c1.2,0,2.2-0.1,3.1-0.3
		s1.6-0.4,2.2-0.4c0.7,0,1.3,0.2,1.7,0.7c0.5,0.5,0.7,1.4,0.7,2.8c0,1-0.2,1.9-0.5,2.7c-0.4,0.8-1,1.4-1.9,1.6
		c-0.8,0.3-1.8,0.5-3.2,0.7C334.5,505.9,333.3,506,332.2,506z"/>
	<path class="st0" d="M367.6,506c-4.8,0-8.9-1-12.4-3s-6.2-4.9-8.1-8.5c-1.9-3.7-2.9-8-2.9-13c0-3.8,0.5-7.2,1.7-10.2
		c1.1-3,2.7-5.5,4.7-7.7s4.5-3.8,7.4-4.9c2.9-1.1,6.1-1.7,9.7-1.7c4.7,0,8.8,1,12.3,3s6.2,4.8,8.1,8.5c1.9,3.7,2.9,8,2.9,13.1
		c0,3.8-0.6,7.1-1.6,10.2c-1.1,3-2.7,5.6-4.7,7.8c-2,2.1-4.5,3.8-7.4,4.9C374.2,505.5,371.1,506,367.6,506z M367.6,498.5
		c2.7,0,5-0.6,7-1.9c2-1.3,3.6-3.2,4.7-5.7c1.1-2.5,1.7-5.6,1.7-9.3c0-5.6-1.2-9.8-3.7-12.6s-5.7-4.3-9.7-4.3
		c-2.7,0-5.1,0.6-7.1,1.9c-2,1.3-3.6,3.2-4.7,5.7c-1.1,2.5-1.7,5.6-1.7,9.3c0,5.5,1.2,9.7,3.7,12.6
		C360.2,497,363.5,498.5,367.6,498.5z"/>
	<path class="st0" d="M442.7,506c-5,0-8.8-1.5-11.4-4.4c-2.6-2.9-3.8-7.2-3.8-12.8V441c0-1.6,0.4-2.8,1.3-3.7c0.8-0.8,2-1.3,3.6-1.3
		c1.6,0,2.8,0.4,3.6,1.3c0.9,0.8,1.3,2.1,1.3,3.7v47.3c0,3.2,0.7,5.6,2,7.2c1.3,1.6,3.3,2.4,5.8,2.4c0.6,0,1.1,0,1.6,0
		s0.9-0.1,1.4-0.1c0.8-0.1,1.3,0.1,1.7,0.6c0.3,0.5,0.5,1.5,0.5,3c0,1.4-0.3,2.4-0.9,3.2s-1.5,1.2-2.8,1.4c-0.6,0.1-1.2,0.1-1.8,0.1
		C443.9,506,443.3,506,442.7,506z"/>
	<path class="st0" d="M472.3,506c-3.3,0-6.3-0.6-8.9-1.9c-2.6-1.3-4.7-3-6.2-5.2s-2.2-4.7-2.2-7.5c0-3.5,0.9-6.3,2.7-8.3
		s4.7-3.5,8.8-4.4c4.1-0.9,9.7-1.3,16.6-1.3h4.6v6h-4.5c-4.7,0-8.3,0.2-11.1,0.7c-2.7,0.5-4.6,1.2-5.8,2.3c-1.1,1.1-1.7,2.5-1.7,4.4
		c0,2.5,0.8,4.4,2.5,6c1.7,1.5,4,2.3,7,2.3c2.4,0,4.5-0.6,6.3-1.7c1.8-1.1,3.3-2.7,4.3-4.6s1.6-4.2,1.6-6.7v-11.2
		c0-3.7-0.8-6.3-2.3-8c-1.6-1.6-4.1-2.4-7.7-2.4c-2.1,0-4.2,0.3-6.5,0.8c-2.2,0.5-4.5,1.4-6.9,2.6c-1.1,0.5-2,0.7-2.8,0.5
		s-1.4-0.6-1.8-1.3c-0.5-0.7-0.7-1.4-0.7-2.2s0.2-1.6,0.6-2.4c0.4-0.8,1.1-1.4,2.2-1.7c2.8-1.4,5.7-2.3,8.4-2.9
		c2.8-0.6,5.4-0.9,7.9-0.9c4.3,0,7.9,0.7,10.7,2c2.8,1.4,4.9,3.4,6.3,6.2c1.4,2.8,2,6.4,2,10.8v24.9c0,1.6-0.4,2.8-1.2,3.6
		s-1.9,1.3-3.4,1.3c-1.4,0-2.6-0.4-3.4-1.3c-0.8-0.9-1.3-2.1-1.3-3.6v-6.3h0.9c-0.5,2.4-1.5,4.4-2.9,6.2c-1.4,1.7-3.1,3-5.2,3.9
		C477.3,505.6,474.9,506,472.3,506z"/>
	<path class="st0" d="M525.8,506c-2.8,0-5.8-0.3-8.8-1c-3-0.6-5.8-1.7-8.3-3.3c-0.8-0.6-1.4-1.2-1.7-1.9c-0.3-0.7-0.4-1.4-0.3-2.2
		c0.1-0.7,0.4-1.4,0.9-1.9s1.1-0.9,1.8-1c0.7-0.1,1.5,0,2.4,0.5c2.5,1.4,4.9,2.4,7.3,3c2.3,0.5,4.6,0.8,6.9,0.8c3.4,0,6-0.6,7.8-1.8
		c1.7-1.2,2.6-2.9,2.6-4.9c0-1.7-0.6-3-1.7-3.9c-1.2-0.9-2.9-1.7-5.2-2.2l-9.2-1.8c-4-0.8-7.1-2.3-9.1-4.5c-2.1-2.1-3.1-4.9-3.1-8.2
		c0-3,0.8-5.6,2.4-7.8c1.6-2.2,3.9-3.9,6.8-5.1c2.9-1.2,6.3-1.8,10.1-1.8c2.8,0,5.5,0.4,8.1,1.1c2.5,0.7,4.9,1.8,7,3.2
		c0.8,0.5,1.4,1.1,1.6,1.8c0.3,0.7,0.3,1.5,0.1,2.2s-0.5,1.3-1,1.9c-0.5,0.6-1.1,0.9-1.9,1c-0.7,0.1-1.6-0.1-2.5-0.5
		c-1.9-1.2-3.9-2.1-5.8-2.6c-1.9-0.5-3.8-0.8-5.7-0.8c-3.4,0-6,0.6-7.7,1.9c-1.7,1.3-2.6,3-2.6,5.1c0,1.6,0.5,2.9,1.6,4
		c1,1,2.7,1.8,4.9,2.2l9.2,1.8c4.2,0.8,7.4,2.3,9.6,4.3s3.3,4.7,3.3,8.2c0,4.5-1.8,8-5.3,10.6C536.4,504.7,531.7,506,525.8,506z"/>
	<path class="st0" d="M578.4,506c-5.2,0-9.6-1-13.3-3s-6.6-4.8-8.6-8.4c-2-3.7-3.1-8-3.1-13.1c0-4.9,1-9.2,3-12.9s4.8-6.6,8.2-8.6
		c3.5-2.1,7.5-3.1,11.9-3.1c3.3,0,6.2,0.5,8.8,1.6s4.8,2.6,6.6,4.7c1.8,2.1,3.2,4.5,4.2,7.4c0.9,2.9,1.4,6.2,1.4,9.8
		c0,1.1-0.3,1.9-1,2.5c-0.6,0.6-1.6,0.8-2.9,0.8H561v-6h29.9l-1.6,1.4c0-3.2-0.5-6-1.4-8.2c-0.9-2.3-2.3-4-4.2-5.2
		c-1.8-1.2-4.1-1.8-6.8-1.8c-3,0-5.6,0.7-7.7,2.1c-2.1,1.4-3.7,3.4-4.8,5.9s-1.6,5.5-1.6,8.8v0.6c0,5.7,1.3,10,4,12.9
		s6.6,4.3,11.7,4.3c1.9,0,4-0.3,6.2-0.8s4.2-1.4,6.2-2.6c1.1-0.6,2.1-0.9,3-0.9c0.9,0.1,1.6,0.4,2.1,0.9s0.9,1.2,1,1.9
		c0.1,0.8,0,1.6-0.4,2.4c-0.4,0.8-1.1,1.5-2,2.2c-2.2,1.5-4.8,2.6-7.7,3.3C584,505.7,581.1,506,578.4,506z"/>
	<path class="st0" d="M613.3,505.8c-1.6,0-2.8-0.4-3.7-1.3c-0.8-0.9-1.3-2.1-1.3-3.6v-38.8c0-1.6,0.4-2.8,1.3-3.7
		c0.8-0.8,2-1.3,3.5-1.3c1.6,0,2.7,0.4,3.5,1.3c0.8,0.8,1.2,2.1,1.2,3.7v7.1h-1c1-3.9,2.9-6.8,5.7-8.8c2.8-2,6.3-3.2,10.7-3.5
		c1.2-0.1,2.1,0.2,2.8,0.9c0.7,0.6,1.1,1.6,1.1,3c0.1,1.4-0.2,2.4-0.9,3.3c-0.7,0.8-1.8,1.3-3.3,1.4l-1.8,0.2
		c-4.2,0.4-7.4,1.7-9.6,4s-3.3,5.4-3.3,9.3v22c0,1.6-0.4,2.8-1.2,3.6S614.9,505.8,613.3,505.8z"/>
</g>
<path class="st0" d="M484.1,451.5c-0.5,0.8-1.2,1.2-1.9,1.4c-0.8,0.1-1.5,0-2.2-0.4c-0.7-0.4-1.2-0.9-1.5-1.7
	c-0.3-0.7-0.2-1.5,0.1-2.4l4-11.4c0.5-1,1.2-1.7,2-2.1c0.8-0.3,1.7-0.4,2.6-0.1c0.9,0.2,1.6,0.6,2.3,1.2c0.6,0.6,1,1.3,1.1,2.2
	c0.1,0.9-0.1,1.8-0.7,2.6L484.1,451.5z"/>
</svg>
